<svg width="489" height="58" viewBox="0 0 489 58" fill="none" xmlns="http://www.w3.org/2000/svg">
<mask id="path-1-outside-1_8_5" maskUnits="userSpaceOnUse" x="0" y="0" width="489" height="58" fill="black">
<rect fill="white" width="489" height="58"/>
<path d="M6.344 51.52C5.448 51.52 5 51.136 5 50.368C5 50.0267 5.10667 49.6 5.32 49.088L21.576 10.176C21.9173 9.36533 22.28 8.81067 22.664 8.512C23.0907 8.17067 23.7093 8 24.52 8H30.344C31.1547 8 31.752 8.17067 32.136 8.512C32.5627 8.81067 32.9467 9.36533 33.288 10.176L49.544 49.088C49.7573 49.6 49.864 50.0053 49.864 50.304C49.864 50.688 49.736 50.9867 49.48 51.2C49.2667 51.4133 48.9467 51.52 48.52 51.52H38.6C38.0027 51.52 37.5333 51.4133 37.192 51.2C36.8507 50.944 36.5733 50.5387 36.36 49.984L34.12 43.84H20.68L18.504 49.984C18.2907 50.5387 18.0133 50.944 17.672 51.2C17.3307 51.4133 16.84 51.52 16.2 51.52H6.344ZM31.304 35.136L27.4 24.256L23.496 35.136H31.304Z"/>
<path d="M70.3235 52.48C63.9662 52.48 59.1875 51.0933 55.9875 48.32C52.7875 45.5467 51.1875 41.4293 51.1875 35.968C51.1875 31.0613 52.5528 27.1573 55.2835 24.256C58.0142 21.312 61.8755 19.84 66.8675 19.84C68.2755 19.84 69.6408 20.0107 70.9635 20.352C72.2862 20.6507 73.3315 21.056 74.0995 21.568V11.264C74.0995 10.1547 74.3555 9.344 74.8675 8.832C75.3795 8.27733 76.2542 8 77.4915 8H83.4435C84.6808 8 85.5555 8.27733 86.0675 8.832C86.5795 9.344 86.8355 10.1547 86.8355 11.264V47.936C85.0008 49.2587 82.6115 50.3467 79.6675 51.2C76.7235 52.0533 73.6088 52.48 70.3235 52.48ZM70.7075 43.776C72.1582 43.776 73.3102 43.5413 74.1635 43.072V32.768C74.1635 29.952 72.6488 28.544 69.6195 28.544C67.7422 28.544 66.3342 29.2267 65.3955 30.592C64.4995 31.9147 64.0515 33.728 64.0515 36.032C64.0515 38.8053 64.6062 40.7893 65.7155 41.984C66.8248 43.1787 68.4888 43.776 70.7075 43.776Z"/>
<path d="M108.621 52.48C102.776 52.48 98.2317 51.0293 94.989 48.128C91.7463 45.184 90.125 41.1947 90.125 36.16C90.125 31.1253 91.7463 27.1573 94.989 24.256C98.2317 21.312 102.776 19.84 108.621 19.84C114.466 19.84 119.01 21.312 122.253 24.256C125.538 27.1573 127.181 31.1253 127.181 36.16C127.181 41.1947 125.538 45.184 122.253 48.128C119.01 51.0293 114.466 52.48 108.621 52.48ZM108.621 43.328C112.376 43.328 114.253 40.9387 114.253 36.16C114.253 31.4667 112.376 29.12 108.621 29.12C104.866 29.12 102.989 31.4667 102.989 36.16C102.989 38.5493 103.48 40.3413 104.461 41.536C105.442 42.7307 106.829 43.328 108.621 43.328Z"/>
<path d="M134.797 51.52C133.56 51.52 132.685 51.264 132.173 50.752C131.661 50.24 131.405 49.4293 131.405 48.32V22.784C131.405 22.016 131.533 21.504 131.789 21.248C132.088 20.9493 132.685 20.8 133.581 20.8H140.173C140.685 20.8 141.069 20.8853 141.325 21.056C141.624 21.184 141.794 21.44 141.837 21.824L142.157 23.68C144.717 21.12 147.81 19.84 151.437 19.84C152.845 19.84 153.997 19.968 154.893 20.224C155.789 20.4373 156.6 20.8 157.325 21.312C157.752 21.6107 157.965 21.952 157.965 22.336C157.965 22.464 157.922 22.6987 157.837 23.04L155.789 28.864C155.618 29.4613 155.298 29.76 154.829 29.76C154.616 29.76 154.36 29.6747 154.061 29.504C152.909 28.864 151.522 28.544 149.901 28.544C148.28 28.544 146.936 28.992 145.869 29.888C144.845 30.784 144.333 31.9787 144.333 33.472V48.32C144.333 49.4293 144.077 50.24 143.565 50.752C143.096 51.264 142.242 51.52 141.005 51.52H134.797Z"/>
<path d="M172.873 52.48C168.862 52.48 165.641 51.2 163.209 48.64C160.82 46.0373 159.625 42.3893 159.625 37.696C159.625 34.112 160.436 30.976 162.057 28.288C163.721 25.6 166.046 23.5307 169.033 22.08C172.062 20.5867 175.54 19.84 179.465 19.84C182.708 19.84 185.566 20.2027 188.041 20.928C190.558 21.6107 192.862 22.6133 194.953 23.936V49.536C194.953 50.3467 194.804 50.88 194.505 51.136C194.206 51.392 193.609 51.52 192.713 51.52H186.185C185.716 51.52 185.353 51.456 185.097 51.328C184.841 51.1573 184.628 50.9013 184.457 50.56L183.625 48.64C182.388 49.9627 180.894 50.9227 179.145 51.52C177.438 52.16 175.348 52.48 172.873 52.48ZM177.673 43.776C179.337 43.776 180.638 43.3707 181.577 42.56C182.516 41.7493 182.985 40.5973 182.985 39.104V29.12C182.174 28.736 181.15 28.544 179.913 28.544C177.652 28.544 175.838 29.3333 174.473 30.912C173.15 32.4907 172.489 34.7093 172.489 37.568C172.489 41.7067 174.217 43.776 177.673 43.776Z"/>
<path d="M217.107 52.48C213.865 52.48 210.75 52.0533 207.764 51.2C204.777 50.3467 202.345 49.2587 200.467 47.936V11.264C200.467 10.1547 200.724 9.344 201.236 8.832C201.748 8.27733 202.601 8 203.796 8H209.747C210.985 8 211.86 8.27733 212.372 8.832C212.884 9.344 213.139 10.1547 213.139 11.264V21.632C213.907 21.12 214.996 20.6933 216.404 20.352C217.812 20.0107 219.177 19.84 220.499 19.84C225.577 19.84 229.438 21.1627 232.083 23.808C234.771 26.4533 236.116 30.1653 236.116 34.944C236.116 40.4907 234.494 44.8 231.251 47.872C228.009 50.944 223.294 52.48 217.107 52.48ZM216.467 43.776C220.947 43.776 223.188 40.8533 223.188 35.008C223.188 32.7893 222.782 31.168 221.971 30.144C221.203 29.0773 219.902 28.544 218.068 28.544C216.66 28.544 215.465 28.928 214.484 29.696C213.545 30.464 213.076 31.552 213.076 32.96V43.072C213.929 43.5413 215.059 43.776 216.467 43.776Z"/>
<path d="M243.671 51.52C242.433 51.52 241.558 51.264 241.046 50.752C240.577 50.24 240.342 49.4293 240.342 48.32V11.264C240.342 10.1547 240.599 9.344 241.111 8.832C241.623 8.27733 242.476 8 243.671 8H249.878C251.116 8 251.991 8.27733 252.503 8.832C253.015 9.344 253.271 10.1547 253.271 11.264V48.32C253.271 49.4293 253.015 50.24 252.503 50.752C251.991 51.264 251.116 51.52 249.878 51.52H243.671Z"/>
<path d="M276.124 52.48C272.54 52.48 269.34 51.8827 266.524 50.688C263.751 49.4933 261.553 47.7013 259.932 45.312C258.311 42.9227 257.5 40 257.5 36.544C257.5 31.1253 259.036 26.9867 262.108 24.128C265.18 21.2693 269.596 19.84 275.356 19.84C280.988 19.84 285.255 21.248 288.156 24.064C291.1 26.8373 292.572 30.6987 292.572 35.648C292.572 37.7813 291.633 38.848 289.756 38.848H269.66C269.66 40.6827 270.343 42.0907 271.708 43.072C273.116 44.0533 275.228 44.544 278.044 44.544C279.793 44.544 281.244 44.3947 282.396 44.096C283.591 43.7547 284.785 43.264 285.98 42.624C286.492 42.4107 286.833 42.304 287.004 42.304C287.388 42.304 287.708 42.56 287.964 43.072L290.14 47.168C290.353 47.5947 290.46 47.9147 290.46 48.128C290.46 48.512 290.204 48.8747 289.692 49.216C287.943 50.368 285.959 51.2 283.74 51.712C281.521 52.224 278.983 52.48 276.124 52.48ZM281.052 32.512C281.052 30.8907 280.583 29.632 279.644 28.736C278.705 27.84 277.297 27.392 275.42 27.392C273.543 27.392 272.113 27.8613 271.132 28.8C270.151 29.696 269.66 30.9333 269.66 32.512H281.052Z"/>
<path d="M332.753 52.48C326.737 52.48 321.766 51.3707 317.841 49.152C317.03 48.64 316.625 48.192 316.625 47.808C316.625 47.5947 316.732 47.2747 316.945 46.848L319.633 42.048C319.889 41.536 320.209 41.28 320.593 41.28C320.849 41.28 321.212 41.408 321.681 41.664C322.876 42.304 324.39 42.9013 326.225 43.456C328.102 43.968 329.766 44.224 331.217 44.224C332.582 44.224 333.564 44.096 334.161 43.84C334.758 43.5413 335.057 43.072 335.057 42.432C335.057 41.8347 334.63 41.344 333.777 40.96C332.966 40.5333 331.473 40 329.297 39.36L327.889 38.976C324.348 37.9093 321.788 36.6933 320.209 35.328C318.63 33.9627 317.841 32.0213 317.841 29.504C317.841 26.3893 319.185 24 321.873 22.336C324.561 20.672 328.166 19.84 332.689 19.84C335.505 19.84 337.958 20.096 340.049 20.608C342.14 21.12 344.145 21.888 346.065 22.912C346.833 23.3387 347.217 23.808 347.217 24.32C347.217 24.6187 347.089 25.0027 346.833 25.472L344.209 29.632C343.91 30.1013 343.612 30.336 343.313 30.336C343.057 30.336 342.716 30.208 342.289 29.952C341.265 29.3973 340.07 28.9493 338.705 28.608C337.34 28.2667 336.017 28.096 334.737 28.096C331.793 28.096 330.321 28.736 330.321 30.016C330.321 30.6133 330.79 31.1253 331.729 31.552C332.71 31.936 334.204 32.3627 336.209 32.832C336.678 32.96 337.318 33.1307 338.129 33.344C338.982 33.5573 339.686 33.7707 340.241 33.984C342.289 34.7093 343.868 35.456 344.977 36.224C346.086 36.9493 346.876 37.824 347.345 38.848C347.814 39.8293 348.049 41.088 348.049 42.624C348.049 44.4587 347.494 46.1227 346.385 47.616C345.276 49.0667 343.569 50.24 341.265 51.136C338.961 52.032 336.124 52.48 332.753 52.48Z"/>
<path d="M367.215 52.48C363.119 52.48 359.982 51.3707 357.806 49.152C355.63 46.8907 354.543 43.7547 354.543 39.744V29.632H351.918C350.724 29.632 349.913 29.3973 349.487 28.928C349.103 28.4587 348.91 27.648 348.91 26.496V24C348.91 22.848 349.103 22.0373 349.487 21.568C349.913 21.056 350.724 20.8 351.918 20.8H354.543V19.2C354.543 18.176 354.777 17.152 355.246 16.128C355.716 15.0613 356.398 13.7813 357.294 12.288C357.721 11.5627 358.105 11.0933 358.447 10.88C358.831 10.6667 359.492 10.56 360.431 10.56H364.207C365.401 10.56 366.233 10.816 366.703 11.328C367.215 11.84 367.47 12.6507 367.47 13.76V20.8H372.591C373.785 20.8 374.574 21.056 374.958 21.568C375.385 22.0373 375.599 22.848 375.599 24V26.496C375.599 27.648 375.385 28.4587 374.958 28.928C374.574 29.3973 373.785 29.632 372.591 29.632H367.47V39.488C367.47 40.8107 367.726 41.792 368.238 42.432C368.75 43.0293 369.582 43.328 370.734 43.328C371.46 43.328 372.036 43.2427 372.462 43.072C372.932 42.9013 373.486 42.6027 374.126 42.176C374.468 41.9627 374.788 41.856 375.086 41.856C375.513 41.856 375.876 42.112 376.174 42.624L378.862 47.232C379.161 47.744 379.31 48.1493 379.31 48.448C379.31 48.832 379.055 49.1947 378.543 49.536C377.092 50.5173 375.449 51.2427 373.615 51.712C371.823 52.224 369.689 52.48 367.215 52.48Z"/>
<path d="M397.246 52.48C391.401 52.48 386.857 51.0293 383.614 48.128C380.371 45.184 378.75 41.1947 378.75 36.16C378.75 31.1253 380.371 27.1573 383.614 24.256C386.857 21.312 391.401 19.84 397.246 19.84C403.091 19.84 407.635 21.312 410.878 24.256C414.163 27.1573 415.806 31.1253 415.806 36.16C415.806 41.1947 414.163 45.184 410.878 48.128C407.635 51.0293 403.091 52.48 397.246 52.48ZM397.246 43.328C401.001 43.328 402.878 40.9387 402.878 36.16C402.878 31.4667 401.001 29.12 397.246 29.12C393.491 29.12 391.614 31.4667 391.614 36.16C391.614 38.5493 392.105 40.3413 393.086 41.536C394.067 42.7307 395.454 43.328 397.246 43.328Z"/>
<path d="M423.422 51.52C422.185 51.52 421.31 51.264 420.798 50.752C420.286 50.24 420.03 49.4293 420.03 48.32V22.784C420.03 22.016 420.158 21.504 420.414 21.248C420.713 20.9493 421.31 20.8 422.206 20.8H428.798C429.31 20.8 429.694 20.8853 429.95 21.056C430.249 21.184 430.419 21.44 430.462 21.824L430.782 23.68C433.342 21.12 436.435 19.84 440.062 19.84C441.47 19.84 442.622 19.968 443.518 20.224C444.414 20.4373 445.225 20.8 445.95 21.312C446.377 21.6107 446.59 21.952 446.59 22.336C446.59 22.464 446.547 22.6987 446.462 23.04L444.414 28.864C444.243 29.4613 443.923 29.76 443.454 29.76C443.241 29.76 442.985 29.6747 442.686 29.504C441.534 28.864 440.147 28.544 438.526 28.544C436.905 28.544 435.561 28.992 434.494 29.888C433.47 30.784 432.958 31.9787 432.958 33.472V48.32C432.958 49.4293 432.702 50.24 432.19 50.752C431.721 51.264 430.867 51.52 429.63 51.52H423.422Z"/>
<path d="M466.874 52.48C463.29 52.48 460.09 51.8827 457.274 50.688C454.501 49.4933 452.303 47.7013 450.682 45.312C449.061 42.9227 448.25 40 448.25 36.544C448.25 31.1253 449.786 26.9867 452.858 24.128C455.93 21.2693 460.346 19.84 466.106 19.84C471.738 19.84 476.005 21.248 478.906 24.064C481.85 26.8373 483.322 30.6987 483.322 35.648C483.322 37.7813 482.383 38.848 480.506 38.848H460.41C460.41 40.6827 461.093 42.0907 462.458 43.072C463.866 44.0533 465.978 44.544 468.794 44.544C470.543 44.544 471.994 44.3947 473.146 44.096C474.341 43.7547 475.535 43.264 476.73 42.624C477.242 42.4107 477.583 42.304 477.754 42.304C478.138 42.304 478.458 42.56 478.714 43.072L480.89 47.168C481.103 47.5947 481.21 47.9147 481.21 48.128C481.21 48.512 480.954 48.8747 480.442 49.216C478.693 50.368 476.709 51.2 474.49 51.712C472.271 52.224 469.733 52.48 466.874 52.48ZM471.802 32.512C471.802 30.8907 471.333 29.632 470.394 28.736C469.455 27.84 468.047 27.392 466.17 27.392C464.293 27.392 462.863 27.8613 461.882 28.8C460.901 29.696 460.41 30.9333 460.41 32.512H471.802Z"/>
<path d="M6.344 48.52C5.448 48.52 5 48.136 5 47.368C5 47.0267 5.10667 46.6 5.32 46.088L21.576 7.176C21.9173 6.36533 22.28 5.81067 22.664 5.512C23.0907 5.17067 23.7093 5 24.52 5H30.344C31.1547 5 31.752 5.17067 32.136 5.512C32.5627 5.81067 32.9467 6.36533 33.288 7.176L49.544 46.088C49.7573 46.6 49.864 47.0053 49.864 47.304C49.864 47.688 49.736 47.9867 49.48 48.2C49.2667 48.4133 48.9467 48.52 48.52 48.52H38.6C38.0027 48.52 37.5333 48.4133 37.192 48.2C36.8507 47.944 36.5733 47.5387 36.36 46.984L34.12 40.84H20.68L18.504 46.984C18.2907 47.5387 18.0133 47.944 17.672 48.2C17.3307 48.4133 16.84 48.52 16.2 48.52H6.344ZM31.304 32.136L27.4 21.256L23.496 32.136H31.304Z"/>
<path d="M70.3235 49.48C63.9662 49.48 59.1875 48.0933 55.9875 45.32C52.7875 42.5467 51.1875 38.4293 51.1875 32.968C51.1875 28.0613 52.5528 24.1573 55.2835 21.256C58.0142 18.312 61.8755 16.84 66.8675 16.84C68.2755 16.84 69.6408 17.0107 70.9635 17.352C72.2862 17.6507 73.3315 18.056 74.0995 18.568V8.264C74.0995 7.15467 74.3555 6.344 74.8675 5.832C75.3795 5.27733 76.2542 5 77.4915 5H83.4435C84.6808 5 85.5555 5.27733 86.0675 5.832C86.5795 6.344 86.8355 7.15467 86.8355 8.264V44.936C85.0008 46.2587 82.6115 47.3467 79.6675 48.2C76.7235 49.0533 73.6088 49.48 70.3235 49.48ZM70.7075 40.776C72.1582 40.776 73.3102 40.5413 74.1635 40.072V29.768C74.1635 26.952 72.6488 25.544 69.6195 25.544C67.7422 25.544 66.3342 26.2267 65.3955 27.592C64.4995 28.9147 64.0515 30.728 64.0515 33.032C64.0515 35.8053 64.6062 37.7893 65.7155 38.984C66.8248 40.1787 68.4888 40.776 70.7075 40.776Z"/>
<path d="M108.621 49.48C102.776 49.48 98.2317 48.0293 94.989 45.128C91.7463 42.184 90.125 38.1947 90.125 33.16C90.125 28.1253 91.7463 24.1573 94.989 21.256C98.2317 18.312 102.776 16.84 108.621 16.84C114.466 16.84 119.01 18.312 122.253 21.256C125.538 24.1573 127.181 28.1253 127.181 33.16C127.181 38.1947 125.538 42.184 122.253 45.128C119.01 48.0293 114.466 49.48 108.621 49.48ZM108.621 40.328C112.376 40.328 114.253 37.9387 114.253 33.16C114.253 28.4667 112.376 26.12 108.621 26.12C104.866 26.12 102.989 28.4667 102.989 33.16C102.989 35.5493 103.48 37.3413 104.461 38.536C105.442 39.7307 106.829 40.328 108.621 40.328Z"/>
<path d="M134.797 48.52C133.56 48.52 132.685 48.264 132.173 47.752C131.661 47.24 131.405 46.4293 131.405 45.32V19.784C131.405 19.016 131.533 18.504 131.789 18.248C132.088 17.9493 132.685 17.8 133.581 17.8H140.173C140.685 17.8 141.069 17.8853 141.325 18.056C141.624 18.184 141.794 18.44 141.837 18.824L142.157 20.68C144.717 18.12 147.81 16.84 151.437 16.84C152.845 16.84 153.997 16.968 154.893 17.224C155.789 17.4373 156.6 17.8 157.325 18.312C157.752 18.6107 157.965 18.952 157.965 19.336C157.965 19.464 157.922 19.6987 157.837 20.04L155.789 25.864C155.618 26.4613 155.298 26.76 154.829 26.76C154.616 26.76 154.36 26.6747 154.061 26.504C152.909 25.864 151.522 25.544 149.901 25.544C148.28 25.544 146.936 25.992 145.869 26.888C144.845 27.784 144.333 28.9787 144.333 30.472V45.32C144.333 46.4293 144.077 47.24 143.565 47.752C143.096 48.264 142.242 48.52 141.005 48.52H134.797Z"/>
<path d="M172.873 49.48C168.862 49.48 165.641 48.2 163.209 45.64C160.82 43.0373 159.625 39.3893 159.625 34.696C159.625 31.112 160.436 27.976 162.057 25.288C163.721 22.6 166.046 20.5307 169.033 19.08C172.062 17.5867 175.54 16.84 179.465 16.84C182.708 16.84 185.566 17.2027 188.041 17.928C190.558 18.6107 192.862 19.6133 194.953 20.936V46.536C194.953 47.3467 194.804 47.88 194.505 48.136C194.206 48.392 193.609 48.52 192.713 48.52H186.185C185.716 48.52 185.353 48.456 185.097 48.328C184.841 48.1573 184.628 47.9013 184.457 47.56L183.625 45.64C182.388 46.9627 180.894 47.9227 179.145 48.52C177.438 49.16 175.348 49.48 172.873 49.48ZM177.673 40.776C179.337 40.776 180.638 40.3707 181.577 39.56C182.516 38.7493 182.985 37.5973 182.985 36.104V26.12C182.174 25.736 181.15 25.544 179.913 25.544C177.652 25.544 175.838 26.3333 174.473 27.912C173.15 29.4907 172.489 31.7093 172.489 34.568C172.489 38.7067 174.217 40.776 177.673 40.776Z"/>
<path d="M217.107 49.48C213.865 49.48 210.75 49.0533 207.764 48.2C204.777 47.3467 202.345 46.2587 200.467 44.936V8.264C200.467 7.15467 200.724 6.344 201.236 5.832C201.747 5.27733 202.601 5 203.796 5H209.747C210.985 5 211.86 5.27733 212.372 5.832C212.883 6.344 213.139 7.15467 213.139 8.264V18.632C213.908 18.12 214.995 17.6933 216.404 17.352C217.812 17.0107 219.177 16.84 220.499 16.84C225.577 16.84 229.438 18.1627 232.083 20.808C234.771 23.4533 236.116 27.1653 236.116 31.944C236.116 37.4907 234.494 41.8 231.251 44.872C228.009 47.944 223.294 49.48 217.107 49.48ZM216.467 40.776C220.947 40.776 223.188 37.8533 223.188 32.008C223.188 29.7893 222.782 28.168 221.971 27.144C221.203 26.0773 219.902 25.544 218.068 25.544C216.66 25.544 215.465 25.928 214.484 26.696C213.545 27.464 213.076 28.552 213.076 29.96V40.072C213.929 40.5413 215.059 40.776 216.467 40.776Z"/>
<path d="M243.671 48.52C242.433 48.52 241.558 48.264 241.046 47.752C240.577 47.24 240.342 46.4293 240.342 45.32V8.264C240.342 7.15467 240.599 6.344 241.111 5.832C241.622 5.27733 242.476 5 243.671 5H249.878C251.116 5 251.991 5.27733 252.503 5.832C253.014 6.344 253.271 7.15467 253.271 8.264V45.32C253.271 46.4293 253.014 47.24 252.503 47.752C251.991 48.264 251.116 48.52 249.878 48.52H243.671Z"/>
<path d="M276.124 49.48C272.54 49.48 269.34 48.8827 266.524 47.688C263.751 46.4933 261.553 44.7013 259.932 42.312C258.311 39.9227 257.5 37 257.5 33.544C257.5 28.1253 259.036 23.9867 262.108 21.128C265.18 18.2693 269.596 16.84 275.356 16.84C280.988 16.84 285.255 18.248 288.156 21.064C291.1 23.8373 292.572 27.6987 292.572 32.648C292.572 34.7813 291.633 35.848 289.756 35.848H269.66C269.66 37.6827 270.343 39.0907 271.708 40.072C273.116 41.0533 275.228 41.544 278.044 41.544C279.793 41.544 281.244 41.3947 282.396 41.096C283.591 40.7547 284.785 40.264 285.98 39.624C286.492 39.4107 286.833 39.304 287.004 39.304C287.388 39.304 287.708 39.56 287.964 40.072L290.14 44.168C290.353 44.5947 290.46 44.9147 290.46 45.128C290.46 45.512 290.204 45.8747 289.692 46.216C287.943 47.368 285.959 48.2 283.74 48.712C281.521 49.224 278.983 49.48 276.124 49.48ZM281.052 29.512C281.052 27.8907 280.583 26.632 279.644 25.736C278.705 24.84 277.297 24.392 275.42 24.392C273.543 24.392 272.113 24.8613 271.132 25.8C270.151 26.696 269.66 27.9333 269.66 29.512H281.052Z"/>
<path d="M332.753 49.48C326.737 49.48 321.766 48.3707 317.841 46.152C317.03 45.64 316.625 45.192 316.625 44.808C316.625 44.5947 316.732 44.2747 316.945 43.848L319.633 39.048C319.889 38.536 320.209 38.28 320.593 38.28C320.849 38.28 321.212 38.408 321.681 38.664C322.876 39.304 324.39 39.9013 326.225 40.456C328.102 40.968 329.766 41.224 331.217 41.224C332.582 41.224 333.564 41.096 334.161 40.84C334.758 40.5413 335.057 40.072 335.057 39.432C335.057 38.8347 334.63 38.344 333.777 37.96C332.966 37.5333 331.473 37 329.297 36.36L327.889 35.976C324.348 34.9093 321.788 33.6933 320.209 32.328C318.63 30.9627 317.841 29.0213 317.841 26.504C317.841 23.3893 319.185 21 321.873 19.336C324.561 17.672 328.166 16.84 332.689 16.84C335.505 16.84 337.958 17.096 340.049 17.608C342.14 18.12 344.145 18.888 346.065 19.912C346.833 20.3387 347.217 20.808 347.217 21.32C347.217 21.6187 347.089 22.0027 346.833 22.472L344.209 26.632C343.91 27.1013 343.612 27.336 343.313 27.336C343.057 27.336 342.716 27.208 342.289 26.952C341.265 26.3973 340.07 25.9493 338.705 25.608C337.34 25.2667 336.017 25.096 334.737 25.096C331.793 25.096 330.321 25.736 330.321 27.016C330.321 27.6133 330.79 28.1253 331.729 28.552C332.71 28.936 334.204 29.3627 336.209 29.832C336.678 29.96 337.318 30.1307 338.129 30.344C338.982 30.5573 339.686 30.7707 340.241 30.984C342.289 31.7093 343.868 32.456 344.977 33.224C346.086 33.9493 346.876 34.824 347.345 35.848C347.814 36.8293 348.049 38.088 348.049 39.624C348.049 41.4587 347.494 43.1227 346.385 44.616C345.276 46.0667 343.569 47.24 341.265 48.136C338.961 49.032 336.124 49.48 332.753 49.48Z"/>
<path d="M367.215 49.48C363.118 49.48 359.982 48.3707 357.806 46.152C355.63 43.8907 354.543 40.7547 354.543 36.744V26.632H351.918C350.724 26.632 349.913 26.3973 349.487 25.928C349.103 25.4587 348.91 24.648 348.91 23.496V21C348.91 19.848 349.103 19.0373 349.487 18.568C349.913 18.056 350.724 17.8 351.918 17.8H354.543V16.2C354.543 15.176 354.777 14.152 355.246 13.128C355.716 12.0613 356.398 10.7813 357.294 9.288C357.721 8.56266 358.105 8.09333 358.447 7.88C358.831 7.66666 359.492 7.56 360.431 7.56H364.207C365.401 7.56 366.233 7.816 366.703 8.328C367.215 8.84 367.47 9.65066 367.47 10.76V17.8H372.591C373.785 17.8 374.574 18.056 374.958 18.568C375.385 19.0373 375.599 19.848 375.599 21V23.496C375.599 24.648 375.385 25.4587 374.958 25.928C374.574 26.3973 373.785 26.632 372.591 26.632H367.47V36.488C367.47 37.8107 367.727 38.792 368.238 39.432C368.75 40.0293 369.582 40.328 370.734 40.328C371.46 40.328 372.036 40.2427 372.462 40.072C372.932 39.9013 373.486 39.6027 374.126 39.176C374.468 38.9627 374.788 38.856 375.086 38.856C375.513 38.856 375.876 39.112 376.174 39.624L378.862 44.232C379.161 44.744 379.31 45.1493 379.31 45.448C379.31 45.832 379.055 46.1947 378.543 46.536C377.092 47.5173 375.449 48.2427 373.615 48.712C371.823 49.224 369.689 49.48 367.215 49.48Z"/>
<path d="M397.246 49.48C391.401 49.48 386.857 48.0293 383.614 45.128C380.371 42.184 378.75 38.1947 378.75 33.16C378.75 28.1253 380.371 24.1573 383.614 21.256C386.857 18.312 391.401 16.84 397.246 16.84C403.091 16.84 407.635 18.312 410.878 21.256C414.163 24.1573 415.806 28.1253 415.806 33.16C415.806 38.1947 414.163 42.184 410.878 45.128C407.635 48.0293 403.091 49.48 397.246 49.48ZM397.246 40.328C401.001 40.328 402.878 37.9387 402.878 33.16C402.878 28.4667 401.001 26.12 397.246 26.12C393.491 26.12 391.614 28.4667 391.614 33.16C391.614 35.5493 392.105 37.3413 393.086 38.536C394.067 39.7307 395.454 40.328 397.246 40.328Z"/>
<path d="M423.422 48.52C422.185 48.52 421.31 48.264 420.798 47.752C420.286 47.24 420.03 46.4293 420.03 45.32V19.784C420.03 19.016 420.158 18.504 420.414 18.248C420.713 17.9493 421.31 17.8 422.206 17.8H428.798C429.31 17.8 429.694 17.8853 429.95 18.056C430.249 18.184 430.419 18.44 430.462 18.824L430.782 20.68C433.342 18.12 436.435 16.84 440.062 16.84C441.47 16.84 442.622 16.968 443.518 17.224C444.414 17.4373 445.225 17.8 445.95 18.312C446.377 18.6107 446.59 18.952 446.59 19.336C446.59 19.464 446.547 19.6987 446.462 20.04L444.414 25.864C444.243 26.4613 443.923 26.76 443.454 26.76C443.241 26.76 442.985 26.6747 442.686 26.504C441.534 25.864 440.147 25.544 438.526 25.544C436.905 25.544 435.561 25.992 434.494 26.888C433.47 27.784 432.958 28.9787 432.958 30.472V45.32C432.958 46.4293 432.702 47.24 432.19 47.752C431.721 48.264 430.867 48.52 429.63 48.52H423.422Z"/>
<path d="M466.874 49.48C463.29 49.48 460.09 48.8827 457.274 47.688C454.501 46.4933 452.303 44.7013 450.682 42.312C449.061 39.9227 448.25 37 448.25 33.544C448.25 28.1253 449.786 23.9867 452.858 21.128C455.93 18.2693 460.346 16.84 466.106 16.84C471.738 16.84 476.005 18.248 478.906 21.064C481.85 23.8373 483.322 27.6987 483.322 32.648C483.322 34.7813 482.383 35.848 480.506 35.848H460.41C460.41 37.6827 461.093 39.0907 462.458 40.072C463.866 41.0533 465.978 41.544 468.794 41.544C470.543 41.544 471.994 41.3947 473.146 41.096C474.341 40.7547 475.535 40.264 476.73 39.624C477.242 39.4107 477.583 39.304 477.754 39.304C478.138 39.304 478.458 39.56 478.714 40.072L480.89 44.168C481.103 44.5947 481.21 44.9147 481.21 45.128C481.21 45.512 480.954 45.8747 480.442 46.216C478.693 47.368 476.709 48.2 474.49 48.712C472.271 49.224 469.733 49.48 466.874 49.48ZM471.802 29.512C471.802 27.8907 471.333 26.632 470.394 25.736C469.455 24.84 468.047 24.392 466.17 24.392C464.293 24.392 462.863 24.8613 461.882 25.8C460.901 26.696 460.41 27.9333 460.41 29.512H471.802Z"/>
</mask>
<path d="M6.344 51.52C5.448 51.52 5 51.136 5 50.368C5 50.0267 5.10667 49.6 5.32 49.088L21.576 10.176C21.9173 9.36533 22.28 8.81067 22.664 8.512C23.0907 8.17067 23.7093 8 24.52 8H30.344C31.1547 8 31.752 8.17067 32.136 8.512C32.5627 8.81067 32.9467 9.36533 33.288 10.176L49.544 49.088C49.7573 49.6 49.864 50.0053 49.864 50.304C49.864 50.688 49.736 50.9867 49.48 51.2C49.2667 51.4133 48.9467 51.52 48.52 51.52H38.6C38.0027 51.52 37.5333 51.4133 37.192 51.2C36.8507 50.944 36.5733 50.5387 36.36 49.984L34.12 43.84H20.68L18.504 49.984C18.2907 50.5387 18.0133 50.944 17.672 51.2C17.3307 51.4133 16.84 51.52 16.2 51.52H6.344ZM31.304 35.136L27.4 24.256L23.496 35.136H31.304Z" fill="#1E293B"/>
<path d="M70.3235 52.48C63.9662 52.48 59.1875 51.0933 55.9875 48.32C52.7875 45.5467 51.1875 41.4293 51.1875 35.968C51.1875 31.0613 52.5528 27.1573 55.2835 24.256C58.0142 21.312 61.8755 19.84 66.8675 19.84C68.2755 19.84 69.6408 20.0107 70.9635 20.352C72.2862 20.6507 73.3315 21.056 74.0995 21.568V11.264C74.0995 10.1547 74.3555 9.344 74.8675 8.832C75.3795 8.27733 76.2542 8 77.4915 8H83.4435C84.6808 8 85.5555 8.27733 86.0675 8.832C86.5795 9.344 86.8355 10.1547 86.8355 11.264V47.936C85.0008 49.2587 82.6115 50.3467 79.6675 51.2C76.7235 52.0533 73.6088 52.48 70.3235 52.48ZM70.7075 43.776C72.1582 43.776 73.3102 43.5413 74.1635 43.072V32.768C74.1635 29.952 72.6488 28.544 69.6195 28.544C67.7422 28.544 66.3342 29.2267 65.3955 30.592C64.4995 31.9147 64.0515 33.728 64.0515 36.032C64.0515 38.8053 64.6062 40.7893 65.7155 41.984C66.8248 43.1787 68.4888 43.776 70.7075 43.776Z" fill="#1E293B"/>
<path d="M108.621 52.48C102.776 52.48 98.2317 51.0293 94.989 48.128C91.7463 45.184 90.125 41.1947 90.125 36.16C90.125 31.1253 91.7463 27.1573 94.989 24.256C98.2317 21.312 102.776 19.84 108.621 19.84C114.466 19.84 119.01 21.312 122.253 24.256C125.538 27.1573 127.181 31.1253 127.181 36.16C127.181 41.1947 125.538 45.184 122.253 48.128C119.01 51.0293 114.466 52.48 108.621 52.48ZM108.621 43.328C112.376 43.328 114.253 40.9387 114.253 36.16C114.253 31.4667 112.376 29.12 108.621 29.12C104.866 29.12 102.989 31.4667 102.989 36.16C102.989 38.5493 103.48 40.3413 104.461 41.536C105.442 42.7307 106.829 43.328 108.621 43.328Z" fill="#1E293B"/>
<path d="M134.797 51.52C133.56 51.52 132.685 51.264 132.173 50.752C131.661 50.24 131.405 49.4293 131.405 48.32V22.784C131.405 22.016 131.533 21.504 131.789 21.248C132.088 20.9493 132.685 20.8 133.581 20.8H140.173C140.685 20.8 141.069 20.8853 141.325 21.056C141.624 21.184 141.794 21.44 141.837 21.824L142.157 23.68C144.717 21.12 147.81 19.84 151.437 19.84C152.845 19.84 153.997 19.968 154.893 20.224C155.789 20.4373 156.6 20.8 157.325 21.312C157.752 21.6107 157.965 21.952 157.965 22.336C157.965 22.464 157.922 22.6987 157.837 23.04L155.789 28.864C155.618 29.4613 155.298 29.76 154.829 29.76C154.616 29.76 154.36 29.6747 154.061 29.504C152.909 28.864 151.522 28.544 149.901 28.544C148.28 28.544 146.936 28.992 145.869 29.888C144.845 30.784 144.333 31.9787 144.333 33.472V48.32C144.333 49.4293 144.077 50.24 143.565 50.752C143.096 51.264 142.242 51.52 141.005 51.52H134.797Z" fill="#1E293B"/>
<path d="M172.873 52.48C168.862 52.48 165.641 51.2 163.209 48.64C160.82 46.0373 159.625 42.3893 159.625 37.696C159.625 34.112 160.436 30.976 162.057 28.288C163.721 25.6 166.046 23.5307 169.033 22.08C172.062 20.5867 175.54 19.84 179.465 19.84C182.708 19.84 185.566 20.2027 188.041 20.928C190.558 21.6107 192.862 22.6133 194.953 23.936V49.536C194.953 50.3467 194.804 50.88 194.505 51.136C194.206 51.392 193.609 51.52 192.713 51.52H186.185C185.716 51.52 185.353 51.456 185.097 51.328C184.841 51.1573 184.628 50.9013 184.457 50.56L183.625 48.64C182.388 49.9627 180.894 50.9227 179.145 51.52C177.438 52.16 175.348 52.48 172.873 52.48ZM177.673 43.776C179.337 43.776 180.638 43.3707 181.577 42.56C182.516 41.7493 182.985 40.5973 182.985 39.104V29.12C182.174 28.736 181.15 28.544 179.913 28.544C177.652 28.544 175.838 29.3333 174.473 30.912C173.15 32.4907 172.489 34.7093 172.489 37.568C172.489 41.7067 174.217 43.776 177.673 43.776Z" fill="#1E293B"/>
<path d="M217.107 52.48C213.865 52.48 210.75 52.0533 207.764 51.2C204.777 50.3467 202.345 49.2587 200.467 47.936V11.264C200.467 10.1547 200.724 9.344 201.236 8.832C201.748 8.27733 202.601 8 203.796 8H209.747C210.985 8 211.86 8.27733 212.372 8.832C212.884 9.344 213.139 10.1547 213.139 11.264V21.632C213.907 21.12 214.996 20.6933 216.404 20.352C217.812 20.0107 219.177 19.84 220.499 19.84C225.577 19.84 229.438 21.1627 232.083 23.808C234.771 26.4533 236.116 30.1653 236.116 34.944C236.116 40.4907 234.494 44.8 231.251 47.872C228.009 50.944 223.294 52.48 217.107 52.48ZM216.467 43.776C220.947 43.776 223.188 40.8533 223.188 35.008C223.188 32.7893 222.782 31.168 221.971 30.144C221.203 29.0773 219.902 28.544 218.068 28.544C216.66 28.544 215.465 28.928 214.484 29.696C213.545 30.464 213.076 31.552 213.076 32.96V43.072C213.929 43.5413 215.059 43.776 216.467 43.776Z" fill="#1E293B"/>
<path d="M243.671 51.52C242.433 51.52 241.558 51.264 241.046 50.752C240.577 50.24 240.342 49.4293 240.342 48.32V11.264C240.342 10.1547 240.599 9.344 241.111 8.832C241.623 8.27733 242.476 8 243.671 8H249.878C251.116 8 251.991 8.27733 252.503 8.832C253.015 9.344 253.271 10.1547 253.271 11.264V48.32C253.271 49.4293 253.015 50.24 252.503 50.752C251.991 51.264 251.116 51.52 249.878 51.52H243.671Z" fill="#1E293B"/>
<path d="M276.124 52.48C272.54 52.48 269.34 51.8827 266.524 50.688C263.751 49.4933 261.553 47.7013 259.932 45.312C258.311 42.9227 257.5 40 257.5 36.544C257.5 31.1253 259.036 26.9867 262.108 24.128C265.18 21.2693 269.596 19.84 275.356 19.84C280.988 19.84 285.255 21.248 288.156 24.064C291.1 26.8373 292.572 30.6987 292.572 35.648C292.572 37.7813 291.633 38.848 289.756 38.848H269.66C269.66 40.6827 270.343 42.0907 271.708 43.072C273.116 44.0533 275.228 44.544 278.044 44.544C279.793 44.544 281.244 44.3947 282.396 44.096C283.591 43.7547 284.785 43.264 285.98 42.624C286.492 42.4107 286.833 42.304 287.004 42.304C287.388 42.304 287.708 42.56 287.964 43.072L290.14 47.168C290.353 47.5947 290.46 47.9147 290.46 48.128C290.46 48.512 290.204 48.8747 289.692 49.216C287.943 50.368 285.959 51.2 283.74 51.712C281.521 52.224 278.983 52.48 276.124 52.48ZM281.052 32.512C281.052 30.8907 280.583 29.632 279.644 28.736C278.705 27.84 277.297 27.392 275.42 27.392C273.543 27.392 272.113 27.8613 271.132 28.8C270.151 29.696 269.66 30.9333 269.66 32.512H281.052Z" fill="#1E293B"/>
<path d="M332.753 52.48C326.737 52.48 321.766 51.3707 317.841 49.152C317.03 48.64 316.625 48.192 316.625 47.808C316.625 47.5947 316.732 47.2747 316.945 46.848L319.633 42.048C319.889 41.536 320.209 41.28 320.593 41.28C320.849 41.28 321.212 41.408 321.681 41.664C322.876 42.304 324.39 42.9013 326.225 43.456C328.102 43.968 329.766 44.224 331.217 44.224C332.582 44.224 333.564 44.096 334.161 43.84C334.758 43.5413 335.057 43.072 335.057 42.432C335.057 41.8347 334.63 41.344 333.777 40.96C332.966 40.5333 331.473 40 329.297 39.36L327.889 38.976C324.348 37.9093 321.788 36.6933 320.209 35.328C318.63 33.9627 317.841 32.0213 317.841 29.504C317.841 26.3893 319.185 24 321.873 22.336C324.561 20.672 328.166 19.84 332.689 19.84C335.505 19.84 337.958 20.096 340.049 20.608C342.14 21.12 344.145 21.888 346.065 22.912C346.833 23.3387 347.217 23.808 347.217 24.32C347.217 24.6187 347.089 25.0027 346.833 25.472L344.209 29.632C343.91 30.1013 343.612 30.336 343.313 30.336C343.057 30.336 342.716 30.208 342.289 29.952C341.265 29.3973 340.07 28.9493 338.705 28.608C337.34 28.2667 336.017 28.096 334.737 28.096C331.793 28.096 330.321 28.736 330.321 30.016C330.321 30.6133 330.79 31.1253 331.729 31.552C332.71 31.936 334.204 32.3627 336.209 32.832C336.678 32.96 337.318 33.1307 338.129 33.344C338.982 33.5573 339.686 33.7707 340.241 33.984C342.289 34.7093 343.868 35.456 344.977 36.224C346.086 36.9493 346.876 37.824 347.345 38.848C347.814 39.8293 348.049 41.088 348.049 42.624C348.049 44.4587 347.494 46.1227 346.385 47.616C345.276 49.0667 343.569 50.24 341.265 51.136C338.961 52.032 336.124 52.48 332.753 52.48Z" fill="#1E293B"/>
<path d="M367.215 52.48C363.119 52.48 359.982 51.3707 357.806 49.152C355.63 46.8907 354.543 43.7547 354.543 39.744V29.632H351.918C350.724 29.632 349.913 29.3973 349.487 28.928C349.103 28.4587 348.91 27.648 348.91 26.496V24C348.91 22.848 349.103 22.0373 349.487 21.568C349.913 21.056 350.724 20.8 351.918 20.8H354.543V19.2C354.543 18.176 354.777 17.152 355.246 16.128C355.716 15.0613 356.398 13.7813 357.294 12.288C357.721 11.5627 358.105 11.0933 358.447 10.88C358.831 10.6667 359.492 10.56 360.431 10.56H364.207C365.401 10.56 366.233 10.816 366.703 11.328C367.215 11.84 367.47 12.6507 367.47 13.76V20.8H372.591C373.785 20.8 374.574 21.056 374.958 21.568C375.385 22.0373 375.599 22.848 375.599 24V26.496C375.599 27.648 375.385 28.4587 374.958 28.928C374.574 29.3973 373.785 29.632 372.591 29.632H367.47V39.488C367.47 40.8107 367.726 41.792 368.238 42.432C368.75 43.0293 369.582 43.328 370.734 43.328C371.46 43.328 372.036 43.2427 372.462 43.072C372.932 42.9013 373.486 42.6027 374.126 42.176C374.468 41.9627 374.788 41.856 375.086 41.856C375.513 41.856 375.876 42.112 376.174 42.624L378.862 47.232C379.161 47.744 379.31 48.1493 379.31 48.448C379.31 48.832 379.055 49.1947 378.543 49.536C377.092 50.5173 375.449 51.2427 373.615 51.712C371.823 52.224 369.689 52.48 367.215 52.48Z" fill="#1E293B"/>
<path d="M397.246 52.48C391.401 52.48 386.857 51.0293 383.614 48.128C380.371 45.184 378.75 41.1947 378.75 36.16C378.75 31.1253 380.371 27.1573 383.614 24.256C386.857 21.312 391.401 19.84 397.246 19.84C403.091 19.84 407.635 21.312 410.878 24.256C414.163 27.1573 415.806 31.1253 415.806 36.16C415.806 41.1947 414.163 45.184 410.878 48.128C407.635 51.0293 403.091 52.48 397.246 52.48ZM397.246 43.328C401.001 43.328 402.878 40.9387 402.878 36.16C402.878 31.4667 401.001 29.12 397.246 29.12C393.491 29.12 391.614 31.4667 391.614 36.16C391.614 38.5493 392.105 40.3413 393.086 41.536C394.067 42.7307 395.454 43.328 397.246 43.328Z" fill="#1E293B"/>
<path d="M423.422 51.52C422.185 51.52 421.31 51.264 420.798 50.752C420.286 50.24 420.03 49.4293 420.03 48.32V22.784C420.03 22.016 420.158 21.504 420.414 21.248C420.713 20.9493 421.31 20.8 422.206 20.8H428.798C429.31 20.8 429.694 20.8853 429.95 21.056C430.249 21.184 430.419 21.44 430.462 21.824L430.782 23.68C433.342 21.12 436.435 19.84 440.062 19.84C441.47 19.84 442.622 19.968 443.518 20.224C444.414 20.4373 445.225 20.8 445.95 21.312C446.377 21.6107 446.59 21.952 446.59 22.336C446.59 22.464 446.547 22.6987 446.462 23.04L444.414 28.864C444.243 29.4613 443.923 29.76 443.454 29.76C443.241 29.76 442.985 29.6747 442.686 29.504C441.534 28.864 440.147 28.544 438.526 28.544C436.905 28.544 435.561 28.992 434.494 29.888C433.47 30.784 432.958 31.9787 432.958 33.472V48.32C432.958 49.4293 432.702 50.24 432.19 50.752C431.721 51.264 430.867 51.52 429.63 51.52H423.422Z" fill="#1E293B"/>
<path d="M466.874 52.48C463.29 52.48 460.09 51.8827 457.274 50.688C454.501 49.4933 452.303 47.7013 450.682 45.312C449.061 42.9227 448.25 40 448.25 36.544C448.25 31.1253 449.786 26.9867 452.858 24.128C455.93 21.2693 460.346 19.84 466.106 19.84C471.738 19.84 476.005 21.248 478.906 24.064C481.85 26.8373 483.322 30.6987 483.322 35.648C483.322 37.7813 482.383 38.848 480.506 38.848H460.41C460.41 40.6827 461.093 42.0907 462.458 43.072C463.866 44.0533 465.978 44.544 468.794 44.544C470.543 44.544 471.994 44.3947 473.146 44.096C474.341 43.7547 475.535 43.264 476.73 42.624C477.242 42.4107 477.583 42.304 477.754 42.304C478.138 42.304 478.458 42.56 478.714 43.072L480.89 47.168C481.103 47.5947 481.21 47.9147 481.21 48.128C481.21 48.512 480.954 48.8747 480.442 49.216C478.693 50.368 476.709 51.2 474.49 51.712C472.271 52.224 469.733 52.48 466.874 52.48ZM471.802 32.512C471.802 30.8907 471.333 29.632 470.394 28.736C469.455 27.84 468.047 27.392 466.17 27.392C464.293 27.392 462.863 27.8613 461.882 28.8C460.901 29.696 460.41 30.9333 460.41 32.512H471.802Z" fill="#1E293B"/>
<path d="M6.344 48.52C5.448 48.52 5 48.136 5 47.368C5 47.0267 5.10667 46.6 5.32 46.088L21.576 7.176C21.9173 6.36533 22.28 5.81067 22.664 5.512C23.0907 5.17067 23.7093 5 24.52 5H30.344C31.1547 5 31.752 5.17067 32.136 5.512C32.5627 5.81067 32.9467 6.36533 33.288 7.176L49.544 46.088C49.7573 46.6 49.864 47.0053 49.864 47.304C49.864 47.688 49.736 47.9867 49.48 48.2C49.2667 48.4133 48.9467 48.52 48.52 48.52H38.6C38.0027 48.52 37.5333 48.4133 37.192 48.2C36.8507 47.944 36.5733 47.5387 36.36 46.984L34.12 40.84H20.68L18.504 46.984C18.2907 47.5387 18.0133 47.944 17.672 48.2C17.3307 48.4133 16.84 48.52 16.2 48.52H6.344ZM31.304 32.136L27.4 21.256L23.496 32.136H31.304Z" fill="white"/>
<path d="M70.3235 49.48C63.9662 49.48 59.1875 48.0933 55.9875 45.32C52.7875 42.5467 51.1875 38.4293 51.1875 32.968C51.1875 28.0613 52.5528 24.1573 55.2835 21.256C58.0142 18.312 61.8755 16.84 66.8675 16.84C68.2755 16.84 69.6408 17.0107 70.9635 17.352C72.2862 17.6507 73.3315 18.056 74.0995 18.568V8.264C74.0995 7.15467 74.3555 6.344 74.8675 5.832C75.3795 5.27733 76.2542 5 77.4915 5H83.4435C84.6808 5 85.5555 5.27733 86.0675 5.832C86.5795 6.344 86.8355 7.15467 86.8355 8.264V44.936C85.0008 46.2587 82.6115 47.3467 79.6675 48.2C76.7235 49.0533 73.6088 49.48 70.3235 49.48ZM70.7075 40.776C72.1582 40.776 73.3102 40.5413 74.1635 40.072V29.768C74.1635 26.952 72.6488 25.544 69.6195 25.544C67.7422 25.544 66.3342 26.2267 65.3955 27.592C64.4995 28.9147 64.0515 30.728 64.0515 33.032C64.0515 35.8053 64.6062 37.7893 65.7155 38.984C66.8248 40.1787 68.4888 40.776 70.7075 40.776Z" fill="white"/>
<path d="M108.621 49.48C102.776 49.48 98.2317 48.0293 94.989 45.128C91.7463 42.184 90.125 38.1947 90.125 33.16C90.125 28.1253 91.7463 24.1573 94.989 21.256C98.2317 18.312 102.776 16.84 108.621 16.84C114.466 16.84 119.01 18.312 122.253 21.256C125.538 24.1573 127.181 28.1253 127.181 33.16C127.181 38.1947 125.538 42.184 122.253 45.128C119.01 48.0293 114.466 49.48 108.621 49.48ZM108.621 40.328C112.376 40.328 114.253 37.9387 114.253 33.16C114.253 28.4667 112.376 26.12 108.621 26.12C104.866 26.12 102.989 28.4667 102.989 33.16C102.989 35.5493 103.48 37.3413 104.461 38.536C105.442 39.7307 106.829 40.328 108.621 40.328Z" fill="white"/>
<path d="M134.797 48.52C133.56 48.52 132.685 48.264 132.173 47.752C131.661 47.24 131.405 46.4293 131.405 45.32V19.784C131.405 19.016 131.533 18.504 131.789 18.248C132.088 17.9493 132.685 17.8 133.581 17.8H140.173C140.685 17.8 141.069 17.8853 141.325 18.056C141.624 18.184 141.794 18.44 141.837 18.824L142.157 20.68C144.717 18.12 147.81 16.84 151.437 16.84C152.845 16.84 153.997 16.968 154.893 17.224C155.789 17.4373 156.6 17.8 157.325 18.312C157.752 18.6107 157.965 18.952 157.965 19.336C157.965 19.464 157.922 19.6987 157.837 20.04L155.789 25.864C155.618 26.4613 155.298 26.76 154.829 26.76C154.616 26.76 154.36 26.6747 154.061 26.504C152.909 25.864 151.522 25.544 149.901 25.544C148.28 25.544 146.936 25.992 145.869 26.888C144.845 27.784 144.333 28.9787 144.333 30.472V45.32C144.333 46.4293 144.077 47.24 143.565 47.752C143.096 48.264 142.242 48.52 141.005 48.52H134.797Z" fill="white"/>
<path d="M172.873 49.48C168.862 49.48 165.641 48.2 163.209 45.64C160.82 43.0373 159.625 39.3893 159.625 34.696C159.625 31.112 160.436 27.976 162.057 25.288C163.721 22.6 166.046 20.5307 169.033 19.08C172.062 17.5867 175.54 16.84 179.465 16.84C182.708 16.84 185.566 17.2027 188.041 17.928C190.558 18.6107 192.862 19.6133 194.953 20.936V46.536C194.953 47.3467 194.804 47.88 194.505 48.136C194.206 48.392 193.609 48.52 192.713 48.52H186.185C185.716 48.52 185.353 48.456 185.097 48.328C184.841 48.1573 184.628 47.9013 184.457 47.56L183.625 45.64C182.388 46.9627 180.894 47.9227 179.145 48.52C177.438 49.16 175.348 49.48 172.873 49.48ZM177.673 40.776C179.337 40.776 180.638 40.3707 181.577 39.56C182.516 38.7493 182.985 37.5973 182.985 36.104V26.12C182.174 25.736 181.15 25.544 179.913 25.544C177.652 25.544 175.838 26.3333 174.473 27.912C173.15 29.4907 172.489 31.7093 172.489 34.568C172.489 38.7067 174.217 40.776 177.673 40.776Z" fill="white"/>
<path d="M217.107 49.48C213.865 49.48 210.75 49.0533 207.764 48.2C204.777 47.3467 202.345 46.2587 200.467 44.936V8.264C200.467 7.15467 200.724 6.344 201.236 5.832C201.747 5.27733 202.601 5 203.796 5H209.747C210.985 5 211.86 5.27733 212.372 5.832C212.883 6.344 213.139 7.15467 213.139 8.264V18.632C213.908 18.12 214.995 17.6933 216.404 17.352C217.812 17.0107 219.177 16.84 220.499 16.84C225.577 16.84 229.438 18.1627 232.083 20.808C234.771 23.4533 236.116 27.1653 236.116 31.944C236.116 37.4907 234.494 41.8 231.251 44.872C228.009 47.944 223.294 49.48 217.107 49.48ZM216.467 40.776C220.947 40.776 223.188 37.8533 223.188 32.008C223.188 29.7893 222.782 28.168 221.971 27.144C221.203 26.0773 219.902 25.544 218.068 25.544C216.66 25.544 215.465 25.928 214.484 26.696C213.545 27.464 213.076 28.552 213.076 29.96V40.072C213.929 40.5413 215.059 40.776 216.467 40.776Z" fill="white"/>
<path d="M243.671 48.52C242.433 48.52 241.558 48.264 241.046 47.752C240.577 47.24 240.342 46.4293 240.342 45.32V8.264C240.342 7.15467 240.599 6.344 241.111 5.832C241.622 5.27733 242.476 5 243.671 5H249.878C251.116 5 251.991 5.27733 252.503 5.832C253.014 6.344 253.271 7.15467 253.271 8.264V45.32C253.271 46.4293 253.014 47.24 252.503 47.752C251.991 48.264 251.116 48.52 249.878 48.52H243.671Z" fill="white"/>
<path d="M276.124 49.48C272.54 49.48 269.34 48.8827 266.524 47.688C263.751 46.4933 261.553 44.7013 259.932 42.312C258.311 39.9227 257.5 37 257.5 33.544C257.5 28.1253 259.036 23.9867 262.108 21.128C265.18 18.2693 269.596 16.84 275.356 16.84C280.988 16.84 285.255 18.248 288.156 21.064C291.1 23.8373 292.572 27.6987 292.572 32.648C292.572 34.7813 291.633 35.848 289.756 35.848H269.66C269.66 37.6827 270.343 39.0907 271.708 40.072C273.116 41.0533 275.228 41.544 278.044 41.544C279.793 41.544 281.244 41.3947 282.396 41.096C283.591 40.7547 284.785 40.264 285.98 39.624C286.492 39.4107 286.833 39.304 287.004 39.304C287.388 39.304 287.708 39.56 287.964 40.072L290.14 44.168C290.353 44.5947 290.46 44.9147 290.46 45.128C290.46 45.512 290.204 45.8747 289.692 46.216C287.943 47.368 285.959 48.2 283.74 48.712C281.521 49.224 278.983 49.48 276.124 49.48ZM281.052 29.512C281.052 27.8907 280.583 26.632 279.644 25.736C278.705 24.84 277.297 24.392 275.42 24.392C273.543 24.392 272.113 24.8613 271.132 25.8C270.151 26.696 269.66 27.9333 269.66 29.512H281.052Z" fill="white"/>
<path d="M332.753 49.48C326.737 49.48 321.766 48.3707 317.841 46.152C317.03 45.64 316.625 45.192 316.625 44.808C316.625 44.5947 316.732 44.2747 316.945 43.848L319.633 39.048C319.889 38.536 320.209 38.28 320.593 38.28C320.849 38.28 321.212 38.408 321.681 38.664C322.876 39.304 324.39 39.9013 326.225 40.456C328.102 40.968 329.766 41.224 331.217 41.224C332.582 41.224 333.564 41.096 334.161 40.84C334.758 40.5413 335.057 40.072 335.057 39.432C335.057 38.8347 334.63 38.344 333.777 37.96C332.966 37.5333 331.473 37 329.297 36.36L327.889 35.976C324.348 34.9093 321.788 33.6933 320.209 32.328C318.63 30.9627 317.841 29.0213 317.841 26.504C317.841 23.3893 319.185 21 321.873 19.336C324.561 17.672 328.166 16.84 332.689 16.84C335.505 16.84 337.958 17.096 340.049 17.608C342.14 18.12 344.145 18.888 346.065 19.912C346.833 20.3387 347.217 20.808 347.217 21.32C347.217 21.6187 347.089 22.0027 346.833 22.472L344.209 26.632C343.91 27.1013 343.612 27.336 343.313 27.336C343.057 27.336 342.716 27.208 342.289 26.952C341.265 26.3973 340.07 25.9493 338.705 25.608C337.34 25.2667 336.017 25.096 334.737 25.096C331.793 25.096 330.321 25.736 330.321 27.016C330.321 27.6133 330.79 28.1253 331.729 28.552C332.71 28.936 334.204 29.3627 336.209 29.832C336.678 29.96 337.318 30.1307 338.129 30.344C338.982 30.5573 339.686 30.7707 340.241 30.984C342.289 31.7093 343.868 32.456 344.977 33.224C346.086 33.9493 346.876 34.824 347.345 35.848C347.814 36.8293 348.049 38.088 348.049 39.624C348.049 41.4587 347.494 43.1227 346.385 44.616C345.276 46.0667 343.569 47.24 341.265 48.136C338.961 49.032 336.124 49.48 332.753 49.48Z" fill="white"/>
<path d="M367.215 49.48C363.118 49.48 359.982 48.3707 357.806 46.152C355.63 43.8907 354.543 40.7547 354.543 36.744V26.632H351.918C350.724 26.632 349.913 26.3973 349.487 25.928C349.103 25.4587 348.91 24.648 348.91 23.496V21C348.91 19.848 349.103 19.0373 349.487 18.568C349.913 18.056 350.724 17.8 351.918 17.8H354.543V16.2C354.543 15.176 354.777 14.152 355.246 13.128C355.716 12.0613 356.398 10.7813 357.294 9.288C357.721 8.56266 358.105 8.09333 358.447 7.88C358.831 7.66666 359.492 7.56 360.431 7.56H364.207C365.401 7.56 366.233 7.816 366.703 8.328C367.215 8.84 367.47 9.65066 367.47 10.76V17.8H372.591C373.785 17.8 374.574 18.056 374.958 18.568C375.385 19.0373 375.599 19.848 375.599 21V23.496C375.599 24.648 375.385 25.4587 374.958 25.928C374.574 26.3973 373.785 26.632 372.591 26.632H367.47V36.488C367.47 37.8107 367.727 38.792 368.238 39.432C368.75 40.0293 369.582 40.328 370.734 40.328C371.46 40.328 372.036 40.2427 372.462 40.072C372.932 39.9013 373.486 39.6027 374.126 39.176C374.468 38.9627 374.788 38.856 375.086 38.856C375.513 38.856 375.876 39.112 376.174 39.624L378.862 44.232C379.161 44.744 379.31 45.1493 379.31 45.448C379.31 45.832 379.055 46.1947 378.543 46.536C377.092 47.5173 375.449 48.2427 373.615 48.712C371.823 49.224 369.689 49.48 367.215 49.48Z" fill="white"/>
<path d="M397.246 49.48C391.401 49.48 386.857 48.0293 383.614 45.128C380.371 42.184 378.75 38.1947 378.75 33.16C378.75 28.1253 380.371 24.1573 383.614 21.256C386.857 18.312 391.401 16.84 397.246 16.84C403.091 16.84 407.635 18.312 410.878 21.256C414.163 24.1573 415.806 28.1253 415.806 33.16C415.806 38.1947 414.163 42.184 410.878 45.128C407.635 48.0293 403.091 49.48 397.246 49.48ZM397.246 40.328C401.001 40.328 402.878 37.9387 402.878 33.16C402.878 28.4667 401.001 26.12 397.246 26.12C393.491 26.12 391.614 28.4667 391.614 33.16C391.614 35.5493 392.105 37.3413 393.086 38.536C394.067 39.7307 395.454 40.328 397.246 40.328Z" fill="white"/>
<path d="M423.422 48.52C422.185 48.52 421.31 48.264 420.798 47.752C420.286 47.24 420.03 46.4293 420.03 45.32V19.784C420.03 19.016 420.158 18.504 420.414 18.248C420.713 17.9493 421.31 17.8 422.206 17.8H428.798C429.31 17.8 429.694 17.8853 429.95 18.056C430.249 18.184 430.419 18.44 430.462 18.824L430.782 20.68C433.342 18.12 436.435 16.84 440.062 16.84C441.47 16.84 442.622 16.968 443.518 17.224C444.414 17.4373 445.225 17.8 445.95 18.312C446.377 18.6107 446.59 18.952 446.59 19.336C446.59 19.464 446.547 19.6987 446.462 20.04L444.414 25.864C444.243 26.4613 443.923 26.76 443.454 26.76C443.241 26.76 442.985 26.6747 442.686 26.504C441.534 25.864 440.147 25.544 438.526 25.544C436.905 25.544 435.561 25.992 434.494 26.888C433.47 27.784 432.958 28.9787 432.958 30.472V45.32C432.958 46.4293 432.702 47.24 432.19 47.752C431.721 48.264 430.867 48.52 429.63 48.52H423.422Z" fill="white"/>
<path d="M466.874 49.48C463.29 49.48 460.09 48.8827 457.274 47.688C454.501 46.4933 452.303 44.7013 450.682 42.312C449.061 39.9227 448.25 37 448.25 33.544C448.25 28.1253 449.786 23.9867 452.858 21.128C455.93 18.2693 460.346 16.84 466.106 16.84C471.738 16.84 476.005 18.248 478.906 21.064C481.85 23.8373 483.322 27.6987 483.322 32.648C483.322 34.7813 482.383 35.848 480.506 35.848H460.41C460.41 37.6827 461.093 39.0907 462.458 40.072C463.866 41.0533 465.978 41.544 468.794 41.544C470.543 41.544 471.994 41.3947 473.146 41.096C474.341 40.7547 475.535 40.264 476.73 39.624C477.242 39.4107 477.583 39.304 477.754 39.304C478.138 39.304 478.458 39.56 478.714 40.072L480.89 44.168C481.103 44.5947 481.21 44.9147 481.21 45.128C481.21 45.512 480.954 45.8747 480.442 46.216C478.693 47.368 476.709 48.2 474.49 48.712C472.271 49.224 469.733 49.48 466.874 49.48ZM471.802 29.512C471.802 27.8907 471.333 26.632 470.394 25.736C469.455 24.84 468.047 24.392 466.17 24.392C464.293 24.392 462.863 24.8613 461.882 25.8C460.901 26.696 460.41 27.9333 460.41 29.512H471.802Z" fill="white"/>
<path d="M6.344 51.52C5.448 51.52 5 51.136 5 50.368C5 50.0267 5.10667 49.6 5.32 49.088L21.576 10.176C21.9173 9.36533 22.28 8.81067 22.664 8.512C23.0907 8.17067 23.7093 8 24.52 8H30.344C31.1547 8 31.752 8.17067 32.136 8.512C32.5627 8.81067 32.9467 9.36533 33.288 10.176L49.544 49.088C49.7573 49.6 49.864 50.0053 49.864 50.304C49.864 50.688 49.736 50.9867 49.48 51.2C49.2667 51.4133 48.9467 51.52 48.52 51.52H38.6C38.0027 51.52 37.5333 51.4133 37.192 51.2C36.8507 50.944 36.5733 50.5387 36.36 49.984L34.12 43.84H20.68L18.504 49.984C18.2907 50.5387 18.0133 50.944 17.672 51.2C17.3307 51.4133 16.84 51.52 16.2 51.52H6.344ZM31.304 35.136L27.4 24.256L23.496 35.136H31.304Z" stroke="#1E293B" stroke-width="10" mask="url(#path-1-outside-1_8_5)"/>
<path d="M70.3235 52.48C63.9662 52.48 59.1875 51.0933 55.9875 48.32C52.7875 45.5467 51.1875 41.4293 51.1875 35.968C51.1875 31.0613 52.5528 27.1573 55.2835 24.256C58.0142 21.312 61.8755 19.84 66.8675 19.84C68.2755 19.84 69.6408 20.0107 70.9635 20.352C72.2862 20.6507 73.3315 21.056 74.0995 21.568V11.264C74.0995 10.1547 74.3555 9.344 74.8675 8.832C75.3795 8.27733 76.2542 8 77.4915 8H83.4435C84.6808 8 85.5555 8.27733 86.0675 8.832C86.5795 9.344 86.8355 10.1547 86.8355 11.264V47.936C85.0008 49.2587 82.6115 50.3467 79.6675 51.2C76.7235 52.0533 73.6088 52.48 70.3235 52.48ZM70.7075 43.776C72.1582 43.776 73.3102 43.5413 74.1635 43.072V32.768C74.1635 29.952 72.6488 28.544 69.6195 28.544C67.7422 28.544 66.3342 29.2267 65.3955 30.592C64.4995 31.9147 64.0515 33.728 64.0515 36.032C64.0515 38.8053 64.6062 40.7893 65.7155 41.984C66.8248 43.1787 68.4888 43.776 70.7075 43.776Z" stroke="#1E293B" stroke-width="10" mask="url(#path-1-outside-1_8_5)"/>
<path d="M108.621 52.48C102.776 52.48 98.2317 51.0293 94.989 48.128C91.7463 45.184 90.125 41.1947 90.125 36.16C90.125 31.1253 91.7463 27.1573 94.989 24.256C98.2317 21.312 102.776 19.84 108.621 19.84C114.466 19.84 119.01 21.312 122.253 24.256C125.538 27.1573 127.181 31.1253 127.181 36.16C127.181 41.1947 125.538 45.184 122.253 48.128C119.01 51.0293 114.466 52.48 108.621 52.48ZM108.621 43.328C112.376 43.328 114.253 40.9387 114.253 36.16C114.253 31.4667 112.376 29.12 108.621 29.12C104.866 29.12 102.989 31.4667 102.989 36.16C102.989 38.5493 103.48 40.3413 104.461 41.536C105.442 42.7307 106.829 43.328 108.621 43.328Z" stroke="#1E293B" stroke-width="10" mask="url(#path-1-outside-1_8_5)"/>
<path d="M134.797 51.52C133.56 51.52 132.685 51.264 132.173 50.752C131.661 50.24 131.405 49.4293 131.405 48.32V22.784C131.405 22.016 131.533 21.504 131.789 21.248C132.088 20.9493 132.685 20.8 133.581 20.8H140.173C140.685 20.8 141.069 20.8853 141.325 21.056C141.624 21.184 141.794 21.44 141.837 21.824L142.157 23.68C144.717 21.12 147.81 19.84 151.437 19.84C152.845 19.84 153.997 19.968 154.893 20.224C155.789 20.4373 156.6 20.8 157.325 21.312C157.752 21.6107 157.965 21.952 157.965 22.336C157.965 22.464 157.922 22.6987 157.837 23.04L155.789 28.864C155.618 29.4613 155.298 29.76 154.829 29.76C154.616 29.76 154.36 29.6747 154.061 29.504C152.909 28.864 151.522 28.544 149.901 28.544C148.28 28.544 146.936 28.992 145.869 29.888C144.845 30.784 144.333 31.9787 144.333 33.472V48.32C144.333 49.4293 144.077 50.24 143.565 50.752C143.096 51.264 142.242 51.52 141.005 51.52H134.797Z" stroke="#1E293B" stroke-width="10" mask="url(#path-1-outside-1_8_5)"/>
<path d="M172.873 52.48C168.862 52.48 165.641 51.2 163.209 48.64C160.82 46.0373 159.625 42.3893 159.625 37.696C159.625 34.112 160.436 30.976 162.057 28.288C163.721 25.6 166.046 23.5307 169.033 22.08C172.062 20.5867 175.54 19.84 179.465 19.84C182.708 19.84 185.566 20.2027 188.041 20.928C190.558 21.6107 192.862 22.6133 194.953 23.936V49.536C194.953 50.3467 194.804 50.88 194.505 51.136C194.206 51.392 193.609 51.52 192.713 51.52H186.185C185.716 51.52 185.353 51.456 185.097 51.328C184.841 51.1573 184.628 50.9013 184.457 50.56L183.625 48.64C182.388 49.9627 180.894 50.9227 179.145 51.52C177.438 52.16 175.348 52.48 172.873 52.48ZM177.673 43.776C179.337 43.776 180.638 43.3707 181.577 42.56C182.516 41.7493 182.985 40.5973 182.985 39.104V29.12C182.174 28.736 181.15 28.544 179.913 28.544C177.652 28.544 175.838 29.3333 174.473 30.912C173.15 32.4907 172.489 34.7093 172.489 37.568C172.489 41.7067 174.217 43.776 177.673 43.776Z" stroke="#1E293B" stroke-width="10" mask="url(#path-1-outside-1_8_5)"/>
<path d="M217.107 52.48C213.865 52.48 210.75 52.0533 207.764 51.2C204.777 50.3467 202.345 49.2587 200.467 47.936V11.264C200.467 10.1547 200.724 9.344 201.236 8.832C201.748 8.27733 202.601 8 203.796 8H209.747C210.985 8 211.86 8.27733 212.372 8.832C212.884 9.344 213.139 10.1547 213.139 11.264V21.632C213.907 21.12 214.996 20.6933 216.404 20.352C217.812 20.0107 219.177 19.84 220.499 19.84C225.577 19.84 229.438 21.1627 232.083 23.808C234.771 26.4533 236.116 30.1653 236.116 34.944C236.116 40.4907 234.494 44.8 231.251 47.872C228.009 50.944 223.294 52.48 217.107 52.48ZM216.467 43.776C220.947 43.776 223.188 40.8533 223.188 35.008C223.188 32.7893 222.782 31.168 221.971 30.144C221.203 29.0773 219.902 28.544 218.068 28.544C216.66 28.544 215.465 28.928 214.484 29.696C213.545 30.464 213.076 31.552 213.076 32.96V43.072C213.929 43.5413 215.059 43.776 216.467 43.776Z" stroke="#1E293B" stroke-width="10" mask="url(#path-1-outside-1_8_5)"/>
<path d="M243.671 51.52C242.433 51.52 241.558 51.264 241.046 50.752C240.577 50.24 240.342 49.4293 240.342 48.32V11.264C240.342 10.1547 240.599 9.344 241.111 8.832C241.623 8.27733 242.476 8 243.671 8H249.878C251.116 8 251.991 8.27733 252.503 8.832C253.015 9.344 253.271 10.1547 253.271 11.264V48.32C253.271 49.4293 253.015 50.24 252.503 50.752C251.991 51.264 251.116 51.52 249.878 51.52H243.671Z" stroke="#1E293B" stroke-width="10" mask="url(#path-1-outside-1_8_5)"/>
<path d="M276.124 52.48C272.54 52.48 269.34 51.8827 266.524 50.688C263.751 49.4933 261.553 47.7013 259.932 45.312C258.311 42.9227 257.5 40 257.5 36.544C257.5 31.1253 259.036 26.9867 262.108 24.128C265.18 21.2693 269.596 19.84 275.356 19.84C280.988 19.84 285.255 21.248 288.156 24.064C291.1 26.8373 292.572 30.6987 292.572 35.648C292.572 37.7813 291.633 38.848 289.756 38.848H269.66C269.66 40.6827 270.343 42.0907 271.708 43.072C273.116 44.0533 275.228 44.544 278.044 44.544C279.793 44.544 281.244 44.3947 282.396 44.096C283.591 43.7547 284.785 43.264 285.98 42.624C286.492 42.4107 286.833 42.304 287.004 42.304C287.388 42.304 287.708 42.56 287.964 43.072L290.14 47.168C290.353 47.5947 290.46 47.9147 290.46 48.128C290.46 48.512 290.204 48.8747 289.692 49.216C287.943 50.368 285.959 51.2 283.74 51.712C281.521 52.224 278.983 52.48 276.124 52.48ZM281.052 32.512C281.052 30.8907 280.583 29.632 279.644 28.736C278.705 27.84 277.297 27.392 275.42 27.392C273.543 27.392 272.113 27.8613 271.132 28.8C270.151 29.696 269.66 30.9333 269.66 32.512H281.052Z" stroke="#1E293B" stroke-width="10" mask="url(#path-1-outside-1_8_5)"/>
<path d="M332.753 52.48C326.737 52.48 321.766 51.3707 317.841 49.152C317.03 48.64 316.625 48.192 316.625 47.808C316.625 47.5947 316.732 47.2747 316.945 46.848L319.633 42.048C319.889 41.536 320.209 41.28 320.593 41.28C320.849 41.28 321.212 41.408 321.681 41.664C322.876 42.304 324.39 42.9013 326.225 43.456C328.102 43.968 329.766 44.224 331.217 44.224C332.582 44.224 333.564 44.096 334.161 43.84C334.758 43.5413 335.057 43.072 335.057 42.432C335.057 41.8347 334.63 41.344 333.777 40.96C332.966 40.5333 331.473 40 329.297 39.36L327.889 38.976C324.348 37.9093 321.788 36.6933 320.209 35.328C318.63 33.9627 317.841 32.0213 317.841 29.504C317.841 26.3893 319.185 24 321.873 22.336C324.561 20.672 328.166 19.84 332.689 19.84C335.505 19.84 337.958 20.096 340.049 20.608C342.14 21.12 344.145 21.888 346.065 22.912C346.833 23.3387 347.217 23.808 347.217 24.32C347.217 24.6187 347.089 25.0027 346.833 25.472L344.209 29.632C343.91 30.1013 343.612 30.336 343.313 30.336C343.057 30.336 342.716 30.208 342.289 29.952C341.265 29.3973 340.07 28.9493 338.705 28.608C337.34 28.2667 336.017 28.096 334.737 28.096C331.793 28.096 330.321 28.736 330.321 30.016C330.321 30.6133 330.79 31.1253 331.729 31.552C332.71 31.936 334.204 32.3627 336.209 32.832C336.678 32.96 337.318 33.1307 338.129 33.344C338.982 33.5573 339.686 33.7707 340.241 33.984C342.289 34.7093 343.868 35.456 344.977 36.224C346.086 36.9493 346.876 37.824 347.345 38.848C347.814 39.8293 348.049 41.088 348.049 42.624C348.049 44.4587 347.494 46.1227 346.385 47.616C345.276 49.0667 343.569 50.24 341.265 51.136C338.961 52.032 336.124 52.48 332.753 52.48Z" stroke="#1E293B" stroke-width="10" mask="url(#path-1-outside-1_8_5)"/>
<path d="M367.215 52.48C363.119 52.48 359.982 51.3707 357.806 49.152C355.63 46.8907 354.543 43.7547 354.543 39.744V29.632H351.918C350.724 29.632 349.913 29.3973 349.487 28.928C349.103 28.4587 348.91 27.648 348.91 26.496V24C348.91 22.848 349.103 22.0373 349.487 21.568C349.913 21.056 350.724 20.8 351.918 20.8H354.543V19.2C354.543 18.176 354.777 17.152 355.246 16.128C355.716 15.0613 356.398 13.7813 357.294 12.288C357.721 11.5627 358.105 11.0933 358.447 10.88C358.831 10.6667 359.492 10.56 360.431 10.56H364.207C365.401 10.56 366.233 10.816 366.703 11.328C367.215 11.84 367.47 12.6507 367.47 13.76V20.8H372.591C373.785 20.8 374.574 21.056 374.958 21.568C375.385 22.0373 375.599 22.848 375.599 24V26.496C375.599 27.648 375.385 28.4587 374.958 28.928C374.574 29.3973 373.785 29.632 372.591 29.632H367.47V39.488C367.47 40.8107 367.726 41.792 368.238 42.432C368.75 43.0293 369.582 43.328 370.734 43.328C371.46 43.328 372.036 43.2427 372.462 43.072C372.932 42.9013 373.486 42.6027 374.126 42.176C374.468 41.9627 374.788 41.856 375.086 41.856C375.513 41.856 375.876 42.112 376.174 42.624L378.862 47.232C379.161 47.744 379.31 48.1493 379.31 48.448C379.31 48.832 379.055 49.1947 378.543 49.536C377.092 50.5173 375.449 51.2427 373.615 51.712C371.823 52.224 369.689 52.48 367.215 52.48Z" stroke="#1E293B" stroke-width="10" mask="url(#path-1-outside-1_8_5)"/>
<path d="M397.246 52.48C391.401 52.48 386.857 51.0293 383.614 48.128C380.371 45.184 378.75 41.1947 378.75 36.16C378.75 31.1253 380.371 27.1573 383.614 24.256C386.857 21.312 391.401 19.84 397.246 19.84C403.091 19.84 407.635 21.312 410.878 24.256C414.163 27.1573 415.806 31.1253 415.806 36.16C415.806 41.1947 414.163 45.184 410.878 48.128C407.635 51.0293 403.091 52.48 397.246 52.48ZM397.246 43.328C401.001 43.328 402.878 40.9387 402.878 36.16C402.878 31.4667 401.001 29.12 397.246 29.12C393.491 29.12 391.614 31.4667 391.614 36.16C391.614 38.5493 392.105 40.3413 393.086 41.536C394.067 42.7307 395.454 43.328 397.246 43.328Z" stroke="#1E293B" stroke-width="10" mask="url(#path-1-outside-1_8_5)"/>
<path d="M423.422 51.52C422.185 51.52 421.31 51.264 420.798 50.752C420.286 50.24 420.03 49.4293 420.03 48.32V22.784C420.03 22.016 420.158 21.504 420.414 21.248C420.713 20.9493 421.31 20.8 422.206 20.8H428.798C429.31 20.8 429.694 20.8853 429.95 21.056C430.249 21.184 430.419 21.44 430.462 21.824L430.782 23.68C433.342 21.12 436.435 19.84 440.062 19.84C441.47 19.84 442.622 19.968 443.518 20.224C444.414 20.4373 445.225 20.8 445.95 21.312C446.377 21.6107 446.59 21.952 446.59 22.336C446.59 22.464 446.547 22.6987 446.462 23.04L444.414 28.864C444.243 29.4613 443.923 29.76 443.454 29.76C443.241 29.76 442.985 29.6747 442.686 29.504C441.534 28.864 440.147 28.544 438.526 28.544C436.905 28.544 435.561 28.992 434.494 29.888C433.47 30.784 432.958 31.9787 432.958 33.472V48.32C432.958 49.4293 432.702 50.24 432.19 50.752C431.721 51.264 430.867 51.52 429.63 51.52H423.422Z" stroke="#1E293B" stroke-width="10" mask="url(#path-1-outside-1_8_5)"/>
<path d="M466.874 52.48C463.29 52.48 460.09 51.8827 457.274 50.688C454.501 49.4933 452.303 47.7013 450.682 45.312C449.061 42.9227 448.25 40 448.25 36.544C448.25 31.1253 449.786 26.9867 452.858 24.128C455.93 21.2693 460.346 19.84 466.106 19.84C471.738 19.84 476.005 21.248 478.906 24.064C481.85 26.8373 483.322 30.6987 483.322 35.648C483.322 37.7813 482.383 38.848 480.506 38.848H460.41C460.41 40.6827 461.093 42.0907 462.458 43.072C463.866 44.0533 465.978 44.544 468.794 44.544C470.543 44.544 471.994 44.3947 473.146 44.096C474.341 43.7547 475.535 43.264 476.73 42.624C477.242 42.4107 477.583 42.304 477.754 42.304C478.138 42.304 478.458 42.56 478.714 43.072L480.89 47.168C481.103 47.5947 481.21 47.9147 481.21 48.128C481.21 48.512 480.954 48.8747 480.442 49.216C478.693 50.368 476.709 51.2 474.49 51.712C472.271 52.224 469.733 52.48 466.874 52.48ZM471.802 32.512C471.802 30.8907 471.333 29.632 470.394 28.736C469.455 27.84 468.047 27.392 466.17 27.392C464.293 27.392 462.863 27.8613 461.882 28.8C460.901 29.696 460.41 30.9333 460.41 32.512H471.802Z" stroke="#1E293B" stroke-width="10" mask="url(#path-1-outside-1_8_5)"/>
<path d="M6.344 48.52C5.448 48.52 5 48.136 5 47.368C5 47.0267 5.10667 46.6 5.32 46.088L21.576 7.176C21.9173 6.36533 22.28 5.81067 22.664 5.512C23.0907 5.17067 23.7093 5 24.52 5H30.344C31.1547 5 31.752 5.17067 32.136 5.512C32.5627 5.81067 32.9467 6.36533 33.288 7.176L49.544 46.088C49.7573 46.6 49.864 47.0053 49.864 47.304C49.864 47.688 49.736 47.9867 49.48 48.2C49.2667 48.4133 48.9467 48.52 48.52 48.52H38.6C38.0027 48.52 37.5333 48.4133 37.192 48.2C36.8507 47.944 36.5733 47.5387 36.36 46.984L34.12 40.84H20.68L18.504 46.984C18.2907 47.5387 18.0133 47.944 17.672 48.2C17.3307 48.4133 16.84 48.52 16.2 48.52H6.344ZM31.304 32.136L27.4 21.256L23.496 32.136H31.304Z" stroke="#1E293B" stroke-width="10" mask="url(#path-1-outside-1_8_5)"/>
<path d="M70.3235 49.48C63.9662 49.48 59.1875 48.0933 55.9875 45.32C52.7875 42.5467 51.1875 38.4293 51.1875 32.968C51.1875 28.0613 52.5528 24.1573 55.2835 21.256C58.0142 18.312 61.8755 16.84 66.8675 16.84C68.2755 16.84 69.6408 17.0107 70.9635 17.352C72.2862 17.6507 73.3315 18.056 74.0995 18.568V8.264C74.0995 7.15467 74.3555 6.344 74.8675 5.832C75.3795 5.27733 76.2542 5 77.4915 5H83.4435C84.6808 5 85.5555 5.27733 86.0675 5.832C86.5795 6.344 86.8355 7.15467 86.8355 8.264V44.936C85.0008 46.2587 82.6115 47.3467 79.6675 48.2C76.7235 49.0533 73.6088 49.48 70.3235 49.48ZM70.7075 40.776C72.1582 40.776 73.3102 40.5413 74.1635 40.072V29.768C74.1635 26.952 72.6488 25.544 69.6195 25.544C67.7422 25.544 66.3342 26.2267 65.3955 27.592C64.4995 28.9147 64.0515 30.728 64.0515 33.032C64.0515 35.8053 64.6062 37.7893 65.7155 38.984C66.8248 40.1787 68.4888 40.776 70.7075 40.776Z" stroke="#1E293B" stroke-width="10" mask="url(#path-1-outside-1_8_5)"/>
<path d="M108.621 49.48C102.776 49.48 98.2317 48.0293 94.989 45.128C91.7463 42.184 90.125 38.1947 90.125 33.16C90.125 28.1253 91.7463 24.1573 94.989 21.256C98.2317 18.312 102.776 16.84 108.621 16.84C114.466 16.84 119.01 18.312 122.253 21.256C125.538 24.1573 127.181 28.1253 127.181 33.16C127.181 38.1947 125.538 42.184 122.253 45.128C119.01 48.0293 114.466 49.48 108.621 49.48ZM108.621 40.328C112.376 40.328 114.253 37.9387 114.253 33.16C114.253 28.4667 112.376 26.12 108.621 26.12C104.866 26.12 102.989 28.4667 102.989 33.16C102.989 35.5493 103.48 37.3413 104.461 38.536C105.442 39.7307 106.829 40.328 108.621 40.328Z" stroke="#1E293B" stroke-width="10" mask="url(#path-1-outside-1_8_5)"/>
<path d="M134.797 48.52C133.56 48.52 132.685 48.264 132.173 47.752C131.661 47.24 131.405 46.4293 131.405 45.32V19.784C131.405 19.016 131.533 18.504 131.789 18.248C132.088 17.9493 132.685 17.8 133.581 17.8H140.173C140.685 17.8 141.069 17.8853 141.325 18.056C141.624 18.184 141.794 18.44 141.837 18.824L142.157 20.68C144.717 18.12 147.81 16.84 151.437 16.84C152.845 16.84 153.997 16.968 154.893 17.224C155.789 17.4373 156.6 17.8 157.325 18.312C157.752 18.6107 157.965 18.952 157.965 19.336C157.965 19.464 157.922 19.6987 157.837 20.04L155.789 25.864C155.618 26.4613 155.298 26.76 154.829 26.76C154.616 26.76 154.36 26.6747 154.061 26.504C152.909 25.864 151.522 25.544 149.901 25.544C148.28 25.544 146.936 25.992 145.869 26.888C144.845 27.784 144.333 28.9787 144.333 30.472V45.32C144.333 46.4293 144.077 47.24 143.565 47.752C143.096 48.264 142.242 48.52 141.005 48.52H134.797Z" stroke="#1E293B" stroke-width="10" mask="url(#path-1-outside-1_8_5)"/>
<path d="M172.873 49.48C168.862 49.48 165.641 48.2 163.209 45.64C160.82 43.0373 159.625 39.3893 159.625 34.696C159.625 31.112 160.436 27.976 162.057 25.288C163.721 22.6 166.046 20.5307 169.033 19.08C172.062 17.5867 175.54 16.84 179.465 16.84C182.708 16.84 185.566 17.2027 188.041 17.928C190.558 18.6107 192.862 19.6133 194.953 20.936V46.536C194.953 47.3467 194.804 47.88 194.505 48.136C194.206 48.392 193.609 48.52 192.713 48.52H186.185C185.716 48.52 185.353 48.456 185.097 48.328C184.841 48.1573 184.628 47.9013 184.457 47.56L183.625 45.64C182.388 46.9627 180.894 47.9227 179.145 48.52C177.438 49.16 175.348 49.48 172.873 49.48ZM177.673 40.776C179.337 40.776 180.638 40.3707 181.577 39.56C182.516 38.7493 182.985 37.5973 182.985 36.104V26.12C182.174 25.736 181.15 25.544 179.913 25.544C177.652 25.544 175.838 26.3333 174.473 27.912C173.15 29.4907 172.489 31.7093 172.489 34.568C172.489 38.7067 174.217 40.776 177.673 40.776Z" stroke="#1E293B" stroke-width="10" mask="url(#path-1-outside-1_8_5)"/>
<path d="M217.107 49.48C213.865 49.48 210.75 49.0533 207.764 48.2C204.777 47.3467 202.345 46.2587 200.467 44.936V8.264C200.467 7.15467 200.724 6.344 201.236 5.832C201.747 5.27733 202.601 5 203.796 5H209.747C210.985 5 211.86 5.27733 212.372 5.832C212.883 6.344 213.139 7.15467 213.139 8.264V18.632C213.908 18.12 214.995 17.6933 216.404 17.352C217.812 17.0107 219.177 16.84 220.499 16.84C225.577 16.84 229.438 18.1627 232.083 20.808C234.771 23.4533 236.116 27.1653 236.116 31.944C236.116 37.4907 234.494 41.8 231.251 44.872C228.009 47.944 223.294 49.48 217.107 49.48ZM216.467 40.776C220.947 40.776 223.188 37.8533 223.188 32.008C223.188 29.7893 222.782 28.168 221.971 27.144C221.203 26.0773 219.902 25.544 218.068 25.544C216.66 25.544 215.465 25.928 214.484 26.696C213.545 27.464 213.076 28.552 213.076 29.96V40.072C213.929 40.5413 215.059 40.776 216.467 40.776Z" stroke="#1E293B" stroke-width="10" mask="url(#path-1-outside-1_8_5)"/>
<path d="M243.671 48.52C242.433 48.52 241.558 48.264 241.046 47.752C240.577 47.24 240.342 46.4293 240.342 45.32V8.264C240.342 7.15467 240.599 6.344 241.111 5.832C241.622 5.27733 242.476 5 243.671 5H249.878C251.116 5 251.991 5.27733 252.503 5.832C253.014 6.344 253.271 7.15467 253.271 8.264V45.32C253.271 46.4293 253.014 47.24 252.503 47.752C251.991 48.264 251.116 48.52 249.878 48.52H243.671Z" stroke="#1E293B" stroke-width="10" mask="url(#path-1-outside-1_8_5)"/>
<path d="M276.124 49.48C272.54 49.48 269.34 48.8827 266.524 47.688C263.751 46.4933 261.553 44.7013 259.932 42.312C258.311 39.9227 257.5 37 257.5 33.544C257.5 28.1253 259.036 23.9867 262.108 21.128C265.18 18.2693 269.596 16.84 275.356 16.84C280.988 16.84 285.255 18.248 288.156 21.064C291.1 23.8373 292.572 27.6987 292.572 32.648C292.572 34.7813 291.633 35.848 289.756 35.848H269.66C269.66 37.6827 270.343 39.0907 271.708 40.072C273.116 41.0533 275.228 41.544 278.044 41.544C279.793 41.544 281.244 41.3947 282.396 41.096C283.591 40.7547 284.785 40.264 285.98 39.624C286.492 39.4107 286.833 39.304 287.004 39.304C287.388 39.304 287.708 39.56 287.964 40.072L290.14 44.168C290.353 44.5947 290.46 44.9147 290.46 45.128C290.46 45.512 290.204 45.8747 289.692 46.216C287.943 47.368 285.959 48.2 283.74 48.712C281.521 49.224 278.983 49.48 276.124 49.48ZM281.052 29.512C281.052 27.8907 280.583 26.632 279.644 25.736C278.705 24.84 277.297 24.392 275.42 24.392C273.543 24.392 272.113 24.8613 271.132 25.8C270.151 26.696 269.66 27.9333 269.66 29.512H281.052Z" stroke="#1E293B" stroke-width="10" mask="url(#path-1-outside-1_8_5)"/>
<path d="M332.753 49.48C326.737 49.48 321.766 48.3707 317.841 46.152C317.03 45.64 316.625 45.192 316.625 44.808C316.625 44.5947 316.732 44.2747 316.945 43.848L319.633 39.048C319.889 38.536 320.209 38.28 320.593 38.28C320.849 38.28 321.212 38.408 321.681 38.664C322.876 39.304 324.39 39.9013 326.225 40.456C328.102 40.968 329.766 41.224 331.217 41.224C332.582 41.224 333.564 41.096 334.161 40.84C334.758 40.5413 335.057 40.072 335.057 39.432C335.057 38.8347 334.63 38.344 333.777 37.96C332.966 37.5333 331.473 37 329.297 36.36L327.889 35.976C324.348 34.9093 321.788 33.6933 320.209 32.328C318.63 30.9627 317.841 29.0213 317.841 26.504C317.841 23.3893 319.185 21 321.873 19.336C324.561 17.672 328.166 16.84 332.689 16.84C335.505 16.84 337.958 17.096 340.049 17.608C342.14 18.12 344.145 18.888 346.065 19.912C346.833 20.3387 347.217 20.808 347.217 21.32C347.217 21.6187 347.089 22.0027 346.833 22.472L344.209 26.632C343.91 27.1013 343.612 27.336 343.313 27.336C343.057 27.336 342.716 27.208 342.289 26.952C341.265 26.3973 340.07 25.9493 338.705 25.608C337.34 25.2667 336.017 25.096 334.737 25.096C331.793 25.096 330.321 25.736 330.321 27.016C330.321 27.6133 330.79 28.1253 331.729 28.552C332.71 28.936 334.204 29.3627 336.209 29.832C336.678 29.96 337.318 30.1307 338.129 30.344C338.982 30.5573 339.686 30.7707 340.241 30.984C342.289 31.7093 343.868 32.456 344.977 33.224C346.086 33.9493 346.876 34.824 347.345 35.848C347.814 36.8293 348.049 38.088 348.049 39.624C348.049 41.4587 347.494 43.1227 346.385 44.616C345.276 46.0667 343.569 47.24 341.265 48.136C338.961 49.032 336.124 49.48 332.753 49.48Z" stroke="#1E293B" stroke-width="10" mask="url(#path-1-outside-1_8_5)"/>
<path d="M367.215 49.48C363.118 49.48 359.982 48.3707 357.806 46.152C355.63 43.8907 354.543 40.7547 354.543 36.744V26.632H351.918C350.724 26.632 349.913 26.3973 349.487 25.928C349.103 25.4587 348.91 24.648 348.91 23.496V21C348.91 19.848 349.103 19.0373 349.487 18.568C349.913 18.056 350.724 17.8 351.918 17.8H354.543V16.2C354.543 15.176 354.777 14.152 355.246 13.128C355.716 12.0613 356.398 10.7813 357.294 9.288C357.721 8.56266 358.105 8.09333 358.447 7.88C358.831 7.66666 359.492 7.56 360.431 7.56H364.207C365.401 7.56 366.233 7.816 366.703 8.328C367.215 8.84 367.47 9.65066 367.47 10.76V17.8H372.591C373.785 17.8 374.574 18.056 374.958 18.568C375.385 19.0373 375.599 19.848 375.599 21V23.496C375.599 24.648 375.385 25.4587 374.958 25.928C374.574 26.3973 373.785 26.632 372.591 26.632H367.47V36.488C367.47 37.8107 367.727 38.792 368.238 39.432C368.75 40.0293 369.582 40.328 370.734 40.328C371.46 40.328 372.036 40.2427 372.462 40.072C372.932 39.9013 373.486 39.6027 374.126 39.176C374.468 38.9627 374.788 38.856 375.086 38.856C375.513 38.856 375.876 39.112 376.174 39.624L378.862 44.232C379.161 44.744 379.31 45.1493 379.31 45.448C379.31 45.832 379.055 46.1947 378.543 46.536C377.092 47.5173 375.449 48.2427 373.615 48.712C371.823 49.224 369.689 49.48 367.215 49.48Z" stroke="#1E293B" stroke-width="10" mask="url(#path-1-outside-1_8_5)"/>
<path d="M397.246 49.48C391.401 49.48 386.857 48.0293 383.614 45.128C380.371 42.184 378.75 38.1947 378.75 33.16C378.75 28.1253 380.371 24.1573 383.614 21.256C386.857 18.312 391.401 16.84 397.246 16.84C403.091 16.84 407.635 18.312 410.878 21.256C414.163 24.1573 415.806 28.1253 415.806 33.16C415.806 38.1947 414.163 42.184 410.878 45.128C407.635 48.0293 403.091 49.48 397.246 49.48ZM397.246 40.328C401.001 40.328 402.878 37.9387 402.878 33.16C402.878 28.4667 401.001 26.12 397.246 26.12C393.491 26.12 391.614 28.4667 391.614 33.16C391.614 35.5493 392.105 37.3413 393.086 38.536C394.067 39.7307 395.454 40.328 397.246 40.328Z" stroke="#1E293B" stroke-width="10" mask="url(#path-1-outside-1_8_5)"/>
<path d="M423.422 48.52C422.185 48.52 421.31 48.264 420.798 47.752C420.286 47.24 420.03 46.4293 420.03 45.32V19.784C420.03 19.016 420.158 18.504 420.414 18.248C420.713 17.9493 421.31 17.8 422.206 17.8H428.798C429.31 17.8 429.694 17.8853 429.95 18.056C430.249 18.184 430.419 18.44 430.462 18.824L430.782 20.68C433.342 18.12 436.435 16.84 440.062 16.84C441.47 16.84 442.622 16.968 443.518 17.224C444.414 17.4373 445.225 17.8 445.95 18.312C446.377 18.6107 446.59 18.952 446.59 19.336C446.59 19.464 446.547 19.6987 446.462 20.04L444.414 25.864C444.243 26.4613 443.923 26.76 443.454 26.76C443.241 26.76 442.985 26.6747 442.686 26.504C441.534 25.864 440.147 25.544 438.526 25.544C436.905 25.544 435.561 25.992 434.494 26.888C433.47 27.784 432.958 28.9787 432.958 30.472V45.32C432.958 46.4293 432.702 47.24 432.19 47.752C431.721 48.264 430.867 48.52 429.63 48.52H423.422Z" stroke="#1E293B" stroke-width="10" mask="url(#path-1-outside-1_8_5)"/>
<path d="M466.874 49.48C463.29 49.48 460.09 48.8827 457.274 47.688C454.501 46.4933 452.303 44.7013 450.682 42.312C449.061 39.9227 448.25 37 448.25 33.544C448.25 28.1253 449.786 23.9867 452.858 21.128C455.93 18.2693 460.346 16.84 466.106 16.84C471.738 16.84 476.005 18.248 478.906 21.064C481.85 23.8373 483.322 27.6987 483.322 32.648C483.322 34.7813 482.383 35.848 480.506 35.848H460.41C460.41 37.6827 461.093 39.0907 462.458 40.072C463.866 41.0533 465.978 41.544 468.794 41.544C470.543 41.544 471.994 41.3947 473.146 41.096C474.341 40.7547 475.535 40.264 476.73 39.624C477.242 39.4107 477.583 39.304 477.754 39.304C478.138 39.304 478.458 39.56 478.714 40.072L480.89 44.168C481.103 44.5947 481.21 44.9147 481.21 45.128C481.21 45.512 480.954 45.8747 480.442 46.216C478.693 47.368 476.709 48.2 474.49 48.712C472.271 49.224 469.733 49.48 466.874 49.48ZM471.802 29.512C471.802 27.8907 471.333 26.632 470.394 25.736C469.455 24.84 468.047 24.392 466.17 24.392C464.293 24.392 462.863 24.8613 461.882 25.8C460.901 26.696 460.41 27.9333 460.41 29.512H471.802Z" stroke="#1E293B" stroke-width="10" mask="url(#path-1-outside-1_8_5)"/>
</svg>
